<svg aria-hidden="true" style="position: absolute; width: 0; height: 0; overflow: hidden;" version="1.1" xmlns="http://www.w3.org/2000/svg" xmlns:xlink="http://www.w3.org/1999/xlink">
<defs>
<symbol id="icon-tel" viewBox="0 0 32 32">
<path d="M5.926 1.356c-2.199 1.426-2.631 5.883-1.801 9.516 0.646 2.829 2.021 6.624 4.339 10.198 2.18 3.362 5.222 6.376 7.542 8.12 2.979 2.239 7.225 3.663 9.423 2.237 1.112-0.721 2.764-2.691 2.839-3.045 0 0-0.969-1.494-1.181-1.821l-3.248-5.008c-0.241-0.372-1.755-0.032-2.524 0.404-1.037 0.588-1.993 2.165-1.993 2.165-0.711 0.411-1.307 0.002-2.552-0.571-1.53-0.704-3.25-2.891-4.619-4.872-1.25-2.058-2.546-4.52-2.565-6.204-0.015-1.37-0.146-2.081 0.519-2.563 0 0 1.829-0.229 2.789-0.937 0.711-0.524 1.639-1.768 1.398-2.14l-3.248-5.008c-0.213-0.328-1.181-1.821-1.181-1.821-0.354-0.075-2.826 0.629-3.938 1.351z"></path>
</symbol>
<symbol id="icon-email" viewBox="0 0 32 32">
<path d="M2.668 7.127l13.333 12 13.333-12v19.54h-26.667l-0-19.54zM27.341 5.334l-11.34 10.205-11.34-10.205h22.68z"></path>
</symbol>
<symbol id="icon-location" viewBox="0 0 32 32">
<path d="M16 2.667c5.155 0 9.333 4.179 9.333 9.333 0 1.7-0.453 3.293-1.249 4.667-0.53 0.916-3.225 5.582-8.084 13.999-4.859-8.417-7.554-13.084-8.084-13.999-0.796-1.374-1.249-2.967-1.249-4.667 0-5.155 4.179-9.333 9.333-9.333zM16 8c-2.209 0-4 1.791-4 4s1.791 4 4 4c2.209 0 4-1.791 4-4s-1.791-4-4-4z"></path>
</symbol>
</defs>
</svg>
